<svg width="41" height="15" viewBox="0 0 41 15" fill="none" xmlns="http://www.w3.org/2000/svg">
<path d="M5.79759 0.730113C6.47088 0.730113 7.11861 0.843039 7.74077 1.06889C8.36719 1.29474 8.92543 1.65483 9.41548 2.14915C9.9098 2.64347 10.2997 3.29972 10.5852 4.1179C10.875 4.93182 11.022 5.93111 11.0263 7.11577C11.0263 8.22798 10.9006 9.22088 10.6491 10.0945C10.402 10.9638 10.0462 11.7031 9.58168 12.3125C9.11719 12.9219 8.55682 13.3864 7.90057 13.706C7.24432 14.0213 6.51136 14.179 5.7017 14.179C4.82813 14.179 4.05682 14.0107 3.38778 13.674C2.71875 13.3331 2.17969 12.8707 1.7706 12.2869C1.36577 11.6989 1.12074 11.0384 1.03551 10.3054H3.76491C3.87145 10.7827 4.09517 11.1534 4.43608 11.4176C4.77699 11.6776 5.19886 11.8075 5.7017 11.8075C6.55398 11.8075 7.2017 11.4368 7.64489 10.6953C8.08807 9.94957 8.31179 8.92898 8.31605 7.63352H8.22656C8.03054 8.01705 7.76634 8.3473 7.43395 8.62429C7.10156 8.89702 6.72017 9.10795 6.28977 9.2571C5.86364 9.40625 5.4098 9.48082 4.92827 9.48082C4.15696 9.48082 3.46875 9.29972 2.86364 8.9375C2.25852 8.57528 1.78125 8.0767 1.43182 7.44176C1.08239 6.80682 0.90767 6.08239 0.90767 5.26847C0.903409 4.39062 1.10582 3.60866 1.51491 2.92259C1.92401 2.23651 2.49503 1.69957 3.22798 1.31179C3.9652 0.919744 4.82173 0.725852 5.79759 0.730113ZM5.81676 2.90341C5.38636 2.90341 5.00284 3.00568 4.66619 3.21023C4.33381 3.41477 4.0696 3.68963 3.87358 4.0348C3.68182 4.37997 3.58807 4.76562 3.59233 5.19176C3.59233 5.62216 3.68608 6.00994 3.87358 6.35511C4.06534 6.69602 4.32528 6.96875 4.65341 7.1733C4.9858 7.37358 5.36506 7.47372 5.79119 7.47372C6.1108 7.47372 6.40696 7.41406 6.67969 7.29474C6.95241 7.17543 7.18892 7.01136 7.3892 6.80256C7.59375 6.58949 7.75355 6.34446 7.86861 6.06747C7.98367 5.79048 8.04119 5.49645 8.04119 5.18537C8.03693 4.77202 7.93892 4.39276 7.74716 4.04759C7.5554 3.70241 7.29119 3.42543 6.95455 3.21662C6.6179 3.00781 6.23864 2.90341 5.81676 2.90341ZM14.5611 12.4787C14.1392 12.4787 13.777 12.3295 13.4744 12.0312C13.1761 11.733 13.027 11.3707 13.027 10.9446C13.027 10.527 13.1761 10.169 13.4744 9.87074C13.777 9.57244 14.1392 9.4233 14.5611 9.4233C14.9702 9.4233 15.3281 9.57244 15.6349 9.87074C15.9418 10.169 16.0952 10.527 16.0952 10.9446C16.0952 11.2259 16.0227 11.4837 15.8778 11.718C15.7372 11.9482 15.5518 12.1335 15.3217 12.2741C15.0916 12.4105 14.8381 12.4787 14.5611 12.4787ZM14.5611 6.05469C14.1392 6.05469 13.777 5.90554 13.4744 5.60724C13.1761 5.30895 13.027 4.94673 13.027 4.5206C13.027 4.10298 13.1761 3.74716 13.4744 3.45312C13.777 3.15483 14.1392 3.00568 14.5611 3.00568C14.9702 3.00568 15.3281 3.15483 15.6349 3.45312C15.9418 3.74716 16.0952 4.10298 16.0952 4.5206C16.0952 4.80611 16.0227 5.06605 15.8778 5.30043C15.7372 5.53054 15.5518 5.71378 15.3217 5.85014C15.0916 5.98651 14.8381 6.05469 14.5611 6.05469ZM18.1071 11.6989V9.51918L23.5723 0.909091H25.4515V3.92614H24.3393L20.894 9.37855V9.48082H28.6603V11.6989H18.1071ZM24.3904 14V11.0341L24.4416 10.0689V0.909091H27.0368V14H24.3904ZM35.6373 14.2876C34.5378 14.2834 33.5918 14.0128 32.7992 13.4759C32.0108 12.9389 31.4036 12.1612 30.9775 11.1428C30.5556 10.1243 30.3468 8.89915 30.351 7.46733C30.351 6.03977 30.562 4.82315 30.9838 3.81747C31.41 2.81179 32.0172 2.04687 32.8056 1.52273C33.5982 0.994318 34.5421 0.730113 35.6373 0.730113C36.7324 0.730113 37.6742 0.994318 38.4625 1.52273C39.2551 2.05114 39.8645 2.81818 40.2907 3.82386C40.7168 4.82528 40.9277 6.03977 40.9235 7.46733C40.9235 8.90341 40.7104 10.1307 40.2843 11.1491C39.8624 12.1676 39.2573 12.9453 38.4689 13.4822C37.6806 14.0192 36.7367 14.2876 35.6373 14.2876ZM35.6373 11.9929C36.3873 11.9929 36.986 11.6158 37.4334 10.8615C37.8809 10.1072 38.1025 8.97585 38.0982 7.46733C38.0982 6.47443 37.9959 5.64773 37.7914 4.98722C37.5911 4.3267 37.3056 3.83026 36.9348 3.49787C36.5684 3.16548 36.1358 2.99929 35.6373 2.99929C34.8915 2.99929 34.2949 3.37216 33.8475 4.1179C33.4 4.86364 33.1742 5.98011 33.1699 7.46733C33.1699 8.47301 33.2701 9.3125 33.4703 9.9858C33.6749 10.6548 33.9625 11.1577 34.3333 11.4943C34.704 11.8267 35.1387 11.9929 35.6373 11.9929Z" fill="black"/>
</svg>
